# xmcd CD database file
#
# Track frame offsets:
#	150
#	15118
#	30334
#	48266
#	61227
#	75532
#	91507
#	104933
#	117580
#	135305
#	154991
#	175992
#	187138
#	196065
#	198704
#	217024
#	227264
#	236726
#	246815
#	259348
#
# Disc length: 3639 seconds
#
# Revision: 0
# Processed by: cddbd v1.4PL0 Copyright (c) Steve Scherf et al.
# Submitted via: CDex 1.50
#
DISCID=0c0e3514
DTITLE=John Lee Hooker - The Unknown John Lee Hooker 1949 Recordings
DYEAR=1949
DGENRE=Blues
TTITLE0=Guitar Blues Instrumental
TTITLE1=Two White Horses
TTITLE2=Trouble In Mind
TTITLE3=Catfish Blues
TTITLE4=John Henry
TTITLE5=How Long Blues
TTITLE6=Ezekiel Saw The Wheel
TTITLE7=Jack O'Diamonds
TTITLE8=Water Boy
TTITLE9=Six Little Puppies And Twelve Shaggy Hounds
TTITLE10=In The Evenin' When The Sun Goes Down
TTITLE11=Old Blind Barnabus
TTITLE12=Moses Smote The Water
TTITLE13=Spoken Interlude
TTITLE14=Rabbit On The Log
TTITLE15=Come And See About Me
TTITLE16=33 Blues
TTITLE17=She's Real Gone
TTITLE18=I Wonder
TTITLE19=Untitled Slow Blues
EXTD=YEAR: 1949
EXTT0=
EXTT1=
EXTT2=
EXTT3=
EXTT4=
EXTT5=
EXTT6=
EXTT7=
EXTT8=
EXTT9=
EXTT10=
EXTT11=
EXTT12=
EXTT13=
EXTT14=
EXTT15=
EXTT16=
EXTT17=
EXTT18=
EXTT19=
PLAYORDER=
